#!OML:ASF F:\VICON\USERDATA\INSTALL\rory3\rory3.ASF
:FULLY-SPECIFIED
:DEGREES
496
root -3.41044 15.6239 24.9397 197.977 135.658 -176.148
lowerback -14.3009 -0.713134 -3.67859
upperback -8.7205 -0.265893 -1.40477
thorax -1.17842 0.0761341 0.566219
lowerneck -10.1216 -5.65815 -7.67926
upperneck 36.4041 -7.95092 5.53825
head 14.877 -3.53352 2.47578
rclavicle -3.07122e-014 9.54166e-015
rhumerus -59.8991 -37.8218 -21.2182
rradius 11.7193
rwrist 38.6959
rhand -29.9347 41.6592
rfingers 7.12502
rthumb -3.25439 11.7043
lclavicle -3.07122e-014 9.54166e-015
lhumerus -232.161 -206.137 210.009
lradius 36.602
lwrist -29.5175
lhand -31.6046 2.1785
lfingers 7.12502
lthumb -4.86692 32.1026
rfemur 117.245 -164.537 -142.005
rtibia 52.2914
rfoot -27.7635 -35.5179
rtoes 36.5304
lfemur -8.43532 7.07646 -26.9424
ltibia 51.4722
lfoot -9.47623 18.2044
ltoes -43.5274
497
root -3.34373 15.6356 25.0458 197.74 136.007 -176.808
lowerback -14.5635 -0.714278 -3.34339
upperback -8.84603 -0.296637 -1.14663
thorax -1.17015 0.0566207 0.64242
lowerneck -10.214 -5.59515 -7.69531
upperneck 36.6703 -7.77111 5.2998
head 14.9985 -3.48666 2.41106
rclavicle 5.51627e-014 2.56432e-014
rhumerus -62.0466 -38.3212 -17.8843
rradius 11.0852
rwrist 41.5331
rhand -29.6363 40.8513
rfingers 7.12502
rthumb -2.96625 10.8922
lclavicle 5.51627e-014 2.56432e-014
lhumerus -231.981 -206.27 210.73
lradius 35.6798
lwrist -29.7225
lhand -31.5198 4.15286
lfingers 7.12502
lthumb -4.78507 34.0788
rfemur 117.687 -165.425 -141.792
rtibia 52.3107
rfoot -29.1997 -35.6907
rtoes 36.8322
lfemur -8.09012 6.75031 -26.2184
ltibia 51.0449
lfoot -8.11449 17.4702
ltoes -42.7196
498
root -3.26992 15.6448 25.1365 197.81 136.378 -176.94
lowerback -14.8624 -0.833278 -3.29943
upperback -8.81964 -0.448693 -0.900587
thorax -0.977437 -0.0191225 0.853168
lowerneck -10.2221 -5.43564 -7.7837
upperneck 36.6228 -7.46654 5.17962
head 14.947 -3.38753 2.42425
rclavicle -3.54334e-014 -6.95746e-015
rhumerus -63.6791 -38.9639 -14.6945
rradius 10.2066
rwrist 44.4118
rhand -29.3032 40.1335
rfingers 7.12502
rthumb -2.64449 10.1701
lclavicle -3.54334e-014 -6.95746e-015
lhumerus -232.139 -206.828 211.12
lradius 34.9119
lwrist -29.9622
lhand -31.0829 5.57618
lfingers 7.12502
lthumb -4.36316 35.5112
rfemur 117.906 -165.701 -141.798
rtibia 52.5712
rfoot -29.7404 -35.5686
rtoes 36.792
lfemur -7.59143 6.22896 -26.0484
ltibia 50.3504
lfoot -6.0816 17.1409
ltoes -45.2211
499
root -3.17738 15.6611 25.199 197.436 136.375 -177.672
lowerback -14.9978 -0.87061 -2.26239
upperback -8.79692 -0.62529 -0.632217
thorax -0.877189 -0.143119 0.525314
lowerneck -10.3804 -5.29908 -7.87027
upperneck 36.6732 -7.18399 5.03973
head 14.9797 -3.2967 2.42388
rclavicle -1.00635e-013 -3.05134e-014
rhumerus -62.6337 -37.9171 -16.0619
rradius 9.72405
rwrist 43.3073
rhand -29.1436 38.6458
rfingers 7.12502
rthumb -2.49035 8.68055
lclavicle -1.00635e-013 -3.05134e-014
lhumerus -232.396 -207.438 211.359
lradius 34.3492
lwrist -30.4156
lhand -30.4656 5.68954
lfingers 7.12502
lthumb -3.7671 35.636
rfemur 118.056 -164.942 -140.926
rtibia 52.7219
rfoot -29.523 -34.8979
rtoes 36.3476
lfemur -7.12473 5.48207 -25.4195
ltibia 49.9361
lfoot -4.78103 16.4482
ltoes -45.8411
500
root -3.10212 15.6688 25.2945 198.512 136.81 -177.264
lowerback -15.8554 -0.966829 -2.49804
upperback -9.06021 -0.68227 -0.669815
thorax -0.706123 -0.156708 0.603859
lowerneck -10.4507 -5.21599 -7.6489
upperneck 37.0248 -7.05402 4.85164
head 15.134 -3.23143 2.33326
rclavicle -3.19546e-014 9.54166e-015
rhumerus -62.2337 -36.7618 -17.2255
rradius 9.3243
rwrist 42.3455
rhand -28.9828 37.1165
rfingers 7.12502
rthumb -2.33507 7.14956
lclavicle -3.19546e-014 9.54166e-015
lhumerus -232.214 -206.757 212.448
lradius 34.0134
lwrist -29.8133
lhand -30.3918 6.35566
lfingers 7.12502
lthumb -3.69587 36.3034
rfemur 117.5 -165.168 -141.106
rtibia 52.9301
rfoot -29.7059 -34.5625
rtoes 36.2515
lfemur -7.34229 4.73691 -25.7562
ltibia 49.463
lfoot -4.28289 15.4599
ltoes -44.044
501
root -3.02281 15.6889 25.3767 198.893 136.949 -177.618
lowerback -16.4266 -1.0783 -2.02616
upperback -9.33463 -0.867699 -0.510929
thorax -0.699238 -0.256265 0.471757
lowerneck -10.4216 -5.06394 -7.34164
upperneck 37.3763 -6.78028 4.48447
head 15.2413 -3.11829 2.17654
rclavicle 7.06431e-014 1.36167e-014
rhumerus -61.357 -35.6235 -18.6536
rradius 8.58912
rwrist 41.436
rhand -28.7302 35.1861
rfingers 7.12502
rthumb -2.09111 5.21662
lclavicle 7.06431e-014 1.36167e-014
lhumerus -232.497 -206.525 212.976
lradius 33.3822
lwrist -29.8368
lhand -30.3485 6.8883
lfingers 7.12502
lthumb -3.65396 36.8367
rfemur 117.265 -165.047 -140.605
rtibia 52.9412
rfoot -29.7499 -34.1292
rtoes 35.8444
lfemur -7.46736 4.14343 -25.419
ltibia 49.0026
lfoot -3.61802 14.4521
ltoes -44.0159
502
root -2.95252 15.7148 25.4459 199.044 137.158 -177.995
lowerback -16.7644 -1.22554 -1.6559
upperback -9.42888 -1.10613 -0.190833
thorax -0.619064 -0.380749 0.557844
lowerneck -10.5985 -4.88395 -7.19715
upperneck 37.606 -6.38875 4.06849
head 15.3374 -2.9848 2.03884
rclavicle 5.67049e-014 3.66137e-014
rhumerus -59.9437 -34.7053 -20.2048
rradius 7.8648
rwrist 40.4915
rhand -28.2092 32.7244
rfingers 7.12502
rthumb -1.58796 2.75058
lclavicle 5.67049e-014 3.66137e-014
lhumerus -233.419 -208.048 212.134
lradius 32.3692
lwrist -31.9707
lhand -29.7645 6.86568
lfingers 7.12502
lthumb -3.09006 36.823
rfemur 117.339 -165.029 -140.206
rtibia 52.8307
rfoot -29.7545 -33.9019
rtoes 35.0884
lfemur -7.35511 3.57748 -25.0436
ltibia 48.4384
lfoot -3.71176 13.7234
ltoes -43.0858
503
root -2.88551 15.7427 25.5117 199.321 137.612 -178.211
lowerback -17.1045 -1.21145 -1.40027
upperback -9.46343 -1.11942 0.0223538
thorax -0.479911 -0.39197 0.630939
lowerneck -11.0915 -4.75965 -7.16947
upperneck 37.9118 -6.08811 3.80893
head 15.5712 -2.88188 1.96828
rclavicle 4.43787e-014 2.98177e-016
rhumerus -58.8255 -34.0422 -21.5047
rradius 7.25559
rwrist 39.2967
rhand -27.4644 30.0609
rfingers 7.12502
rthumb -0.868631 0.0829539
lclavicle 4.43787e-014 2.98177e-016
lhumerus -233.701 -208.75 212.23
lradius 31.4548
lwrist -33.3603
lhand -29.2044 8.10555
lfingers 7.12502
lthumb -2.54909 38.0701
rfemur 117.467 -165.155 -139.971
rtibia 52.5645
rfoot -29.6206 -33.6308
rtoes 34.5474
lfemur -7.21341 2.84611 -24.9696
ltibia 47.7412
lfoot -4.27889 13.6993
ltoes -41.8111
504
root -2.8317 15.7749 25.5918 199.896 138.093 -178.219
lowerback -17.4165 -1.26426 -1.47614
upperback -9.77719 -1.16302 0.100839
thorax -0.652278 -0.40074 0.747044
lowerneck -11.2555 -4.58402 -6.84291
upperneck 38.3985 -5.79994 3.52724
head 15.8073 -2.74607 1.84366
rclavicle 3.79182e-014 -5.26779e-015
rhumerus -58.1113 -33.0874 -22.8172
rradius 6.40021
rwrist 37.9021
rhand -26.9777 28.2369
rfingers 7.12502
rthumb -0.39856 -1.74251
lclavicle 3.79182e-014 -5.26779e-015
lhumerus -233.599 -207.71 213.322
lradius 30.8228
lwrist -33.0186
lhand -28.6062 10.0467
lfingers 7.12502
lthumb -1.97138 40.0174
rfemur 117.524 -165.647 -140.002
rtibia 52.2102
rfoot -29.6977 -33.5858
rtoes 34.4461
lfemur -7.29219 2.26208 -24.9892
ltibia 46.8535
lfoot -4.94291 13.93
ltoes -41.1631
505
root -2.78227 15.811 25.67 200.294 138.416 -178.349
lowerback -17.4667 -1.33202 -1.43292
upperback -10.2319 -1.24498 0.189056
thorax -1.1133 -0.428718 0.804903
lowerneck -10.9544 -4.40314 -6.29191
upperneck 38.7928 -5.53881 3.12029
head 15.8745 -2.60947 1.62671
rclavicle -1.24414e-013 -4.03533e-014
rhumerus -57.5474 -31.9246 -24.0326
rradius 5.34866
rwrist 36.6421
rhand -26.9636 26.4368
rfingers 7.12502
rthumb -0.384923 -3.54263
lclavicle -1.24414e-013 -4.03533e-014
lhumerus -234.048 -207.284 213.339
lradius 30.0538
lwrist -33.7253
lhand -27.9899 10.2627
lfingers 7.12502
lthumb -1.37614 40.238
rfemur 117.688 -165.974 -139.883
rtibia 51.8117
rfoot -29.658 -33.5463
rtoes 34.0906
lfemur -7.23207 1.72352 -24.8296
ltibia 45.7736
lfoot -6.22585 14.2136
ltoes -40.5889
